<?xml version="1.0" encoding="UTF-8" standalone="no"?>
<!-- Created with Inkscape (http://www.inkscape.org/) -->

<svg
   width="126.55518mm"
   height="46.19836mm"
   viewBox="0 0 126.55518 46.19836"
   version="1.1"
   id="svg17184"
   inkscape:version="1.1 (c68e22c387, 2021-05-23)"
   sodipodi:docname="logo.svg"
   xmlns:inkscape="http://www.inkscape.org/namespaces/inkscape"
   xmlns:sodipodi="http://sodipodi.sourceforge.net/DTD/sodipodi-0.dtd"
   xmlns="http://www.w3.org/2000/svg"
   xmlns:svg="http://www.w3.org/2000/svg">
  <sodipodi:namedview
     id="namedview17186"
     pagecolor="#ffffff"
     bordercolor="#999999"
     borderopacity="1"
     inkscape:pageshadow="0"
     inkscape:pageopacity="0"
     inkscape:pagecheckerboard="0"
     inkscape:document-units="mm"
     showgrid="false"
     fit-margin-top="0"
     fit-margin-left="0"
     fit-margin-right="0"
     fit-margin-bottom="0"
     inkscape:zoom="0.77771465"
     inkscape:cx="487.96818"
     inkscape:cy="187.08661"
     inkscape:window-width="1920"
     inkscape:window-height="1017"
     inkscape:window-x="1912"
     inkscape:window-y="-8"
     inkscape:window-maximized="1"
     inkscape:current-layer="g2708" />
  <defs
     id="defs17181" />
  <g
     inkscape:label="Layer 1"
     inkscape:groupmode="layer"
     id="layer1"
     transform="translate(-42.866736,-98.547159)">
    <g
       id="g2708"
       transform="matrix(4.4287542,0,0,4.4287542,-95.613549,-242.98051)">
      <g
         id="g2656"
         style="fill:#005ea8;fill-opacity:0.996078">
        <g
           aria-label="L"
           id="text12014"
           style="font-weight:800;font-size:10.5833px;line-height:1.25;font-family:Gilroy;-inkscape-font-specification:'Gilroy Ultra-Bold';stroke-width:0.264583">
          <path
             d="m 32.961779,82.894456 h 2.645825 v 1.629828 h -4.339153 v -7.408309 h 1.693328 z"
             id="path137" />
        </g>
        <g
           aria-label="Pro"
           id="text13140"
           style="font-weight:800;font-size:10.5833px;line-height:1.25;font-family:Gilroy;-inkscape-font-specification:'Gilroy Ultra-Bold';stroke-width:0.264583">
          <path
             d="m 41.689294,77.115975 q 1.09008,0 1.841494,0.740831 0.751414,0.740831 0.751414,1.799161 0,1.058329 -0.751414,1.79916 -0.751414,0.740831 -1.841494,0.740831 h -1.111247 v 2.328326 H 38.88472 v -7.408309 z m 0,3.492488 q 0.391582,0 0.645581,-0.275165 0.253999,-0.275166 0.253999,-0.677331 0,-0.402166 -0.253999,-0.677332 -0.253999,-0.275165 -0.645581,-0.275165 h -1.111247 v 1.904993 z"
             id="path140" />
          <path
             d="m 46.557591,80.174548 q 0.148166,-0.507998 0.592665,-0.772581 0.455081,-0.275165 0.99483,-0.275165 v 1.79916 q -0.582082,-0.09525 -1.09008,0.201083 -0.497415,0.285749 -0.497415,1.005414 v 2.391825 h -1.587495 v -5.291649 h 1.587495 z"
             id="path142" />
          <path
             d="m 53.256794,83.86812 q -0.814914,0.804331 -1.98966,0.804331 -1.174746,0 -1.98966,-0.804331 -0.814914,-0.814914 -0.814914,-1.989661 0,-1.174746 0.814914,-1.979077 0.814914,-0.814914 1.98966,-0.814914 1.174746,0 1.98966,0.814914 0.814914,0.804331 0.814914,1.979077 0,1.174747 -0.814914,1.989661 z m -2.857491,-1.09008 q 0.349249,0.349249 0.867831,0.349249 0.518582,0 0.867831,-0.349249 0.349248,-0.349249 0.349248,-0.899581 0,-0.550331 -0.349248,-0.89958 -0.349249,-0.349249 -0.867831,-0.349249 -0.518582,0 -0.867831,0.349249 -0.349249,0.349249 -0.349249,0.89958 0,0.550332 0.349249,0.899581 z"
             id="path144" />
        </g>
        <g
           aria-label="X"
           id="text14200"
           style="font-weight:800;font-size:13.9841px;line-height:1.25;font-family:Gilroy;-inkscape-font-specification:'Gilroy Ultra-Bold';stroke-width:0.291336">
          <path
             d="m 59.844247,86.904839 h -0.85303 l -2.824788,-4.36304 -2.824788,4.36304 h -0.867014 l 3.258295,-5.034277 -3.076502,-4.754594 h 0.85303 l 2.656979,4.097342 2.642995,-4.097342 h 0.85303 l -3.076502,4.754594 z"
             style="font-weight:300;-inkscape-font-specification:'Gilroy Light'"
             id="path147" />
        </g>
      </g>
      <g
         id="g32267"
         transform="translate(-1.0583333)">
        <path
           style="fill:none;stroke:#ae005f;stroke-width:1.2;stroke-linecap:butt;stroke-linejoin:miter;stroke-miterlimit:4;stroke-dasharray:none;stroke-opacity:0.996078"
           d="m 36.370167,79.874032 1.817976,4.050581 c 0,0 0.191368,2.051867 -2.105025,2.051867 l -0.663821,-0.0046"
           id="path26317" />
        <path
           style="color:#000000;fill:none;fill-opacity:0.353414;stroke:#ae005f;stroke-width:0.998;stroke-linecap:round;stroke-linejoin:miter;stroke-miterlimit:4;stroke-dasharray:none;stroke-opacity:0.996078"
           d="M 36.591109,87.048426 35.41983,85.971648 36.464198,84.771381"
           id="rect26770"
           sodipodi:nodetypes="ccc"
           inkscape:transform-center-x="-0.59089335"
           inkscape:transform-center-y="-0.052318061" />
        <path
           style="fill:none;stroke:#ae005f;stroke-width:1.2;stroke-linecap:butt;stroke-linejoin:miter;stroke-miterlimit:4;stroke-dasharray:none;stroke-opacity:0.996078"
           d="m 39.828062,79.911722 -1.864355,5.09691"
           id="path27695" />
        <circle
           style="fill:#ae0060;fill-opacity:0.996078;stroke:none;stroke-width:0.15883;stroke-linecap:round;stroke-linejoin:round"
           id="path25830"
           cx="36.320759"
           cy="79.89743"
           r="0.99403989" />
        <circle
           style="fill:#ae0060;fill-opacity:0.996078;stroke:none;stroke-width:0.15883;stroke-linecap:round;stroke-linejoin:round"
           id="path25830-1"
           cx="39.905201"
           cy="79.89743"
           r="0.99403989" />
        <circle
           style="fill:#ae0060;fill-opacity:0.996078;stroke:none;stroke-width:0.186009;stroke-linecap:round;stroke-linejoin:round"
           id="path25830-1-7"
           cx="38.209408"
           cy="83.605675"
           r="1.164143" />
      </g>
    </g>
  </g>
</svg>
